<?xml version="1.0" standalone="no"?>
<!DOCTYPE svg PUBLIC "-//W3C//DTD SVG 20010904//EN"
 "http://www.w3.org/TR/2001/REC-SVG-20010904/DTD/svg10.dtd">
<svg version="1.0" xmlns="http://www.w3.org/2000/svg"
 width="1078.000000pt" height="1078.000000pt" viewBox="0 0 1078.000000 1078.000000"
 preserveAspectRatio="xMidYMid meet">
<metadata>
Created by potrace 1.11, written by Peter Selinger 2001-2013
</metadata>
<g transform="translate(0.000000,1078.000000) scale(0.100000,-0.100000)"
fill="#000000" stroke="none">
<path d="M5100 10774 c-25 -2 -106 -8 -180 -14 -1101 -89 -2193 -548 -3040
-1276 -1106 -952 -1769 -2276 -1871 -3739 -15 -216 -7 -696 16 -905 134 -1251
677 -2387 1563 -3268 1198 -1190 2860 -1745 4542 -1516 1015 138 1974 572
2775 1257 65 56 194 176 285 267 923 920 1470 2111 1570 3419 13 172 13 606 0
781 -86 1153 -529 2234 -1276 3110 -131 154 -459 481 -614 612 -846 714 -1840
1136 -2955 1253 -140 15 -706 28 -815 19z m4040 -5384 l0 -3800 -3755 0 -3755
0 0 3800 0 3800 3755 0 3755 0 0 -3800z"/>
<path d="M1840 7213 l0 -1778 1773 1773 1772 1772 1773 -1772 1772 -1773 0
1778 0 1777 -3545 0 -3545 0 0 -1777z"/>
<path d="M3745 7039 l-1640 -1641 394 6 c217 3 692 6 1057 6 l662 0 7 73 c41
426 271 769 640 955 141 71 336 122 468 122 29 0 50 5 52 13 3 6 4 483 3 1060
l-3 1047 -1640 -1641z"/>
<path d="M5265 6349 c-382 -47 -707 -336 -809 -719 -29 -106 -32 -305 -8 -422
41 -196 116 -332 267 -483 84 -84 130 -121 195 -158 274 -153 600 -166 878
-36 251 117 435 332 519 606 24 80 27 103 27 258 1 149 -2 180 -22 249 -112
386 -426 657 -817 705 -101 12 -130 12 -230 0z m32 -348 c36 -23 73 -82 98
-159 l17 -54 22 65 c41 121 99 176 173 162 42 -8 104 -67 136 -132 39 -77 41
-114 12 -185 -7 -17 2 -18 109 -18 l116 0 0 -169 0 -170 -37 -3 -38 -3 -3
-252 -2 -253 -490 0 -490 0 0 255 0 255 -40 0 -40 0 0 170 0 170 116 0 c107 0
116 1 109 18 -4 9 -10 38 -12 64 -11 101 102 258 187 258 14 0 39 -9 57 -19z"/>
<path d="M5202 5876 c-16 -19 -35 -51 -42 -71 -16 -48 4 -78 66 -99 64 -22 94
-21 94 2 0 49 -60 202 -79 202 -5 0 -22 -15 -39 -34z"/>
<path d="M5552 5867 c-24 -50 -56 -167 -48 -174 11 -11 96 9 128 30 47 32 48
69 6 133 -43 64 -60 66 -86 11z"/>
<path d="M4947 5573 c-4 -3 -7 -35 -7 -70 l0 -63 150 0 150 0 0 70 0 70 -143
0 c-79 0 -147 -3 -150 -7z"/>
<path d="M5344 5571 c-2 -2 -4 -33 -4 -68 l0 -63 70 0 70 0 0 68 0 67 -66 0
c-36 0 -68 -2 -70 -4z"/>
<path d="M5590 5510 l0 -70 145 0 145 0 0 70 0 70 -145 0 -145 0 0 -70z"/>
<path d="M5030 5130 l0 -200 105 0 105 0 0 200 0 200 -105 0 -105 0 0 -200z"/>
<path d="M5340 5130 l0 -200 70 0 70 0 0 200 0 200 -70 0 -70 0 0 -200z"/>
<path d="M5590 5130 l0 -200 105 0 105 0 0 200 0 200 -105 0 -105 0 0 -200z"/>
<path d="M6550 5343 c0 -10 -5 -52 -10 -93 -70 -538 -506 -960 -1043 -1008
-54 -5 -100 -11 -102 -14 -3 -3 -4 -489 -3 -1081 l3 -1077 1645 1645 1645
1645 -1068 0 c-1009 0 -1067 -1 -1067 -17z"/>
<path d="M1840 3555 l0 -1755 1757 0 1758 0 -1755 1755 c-965 965 -1756 1755
-1757 1755 -2 0 -3 -790 -3 -1755z"/>
<path d="M7175 3550 l-1750 -1750 1753 0 1752 0 0 1750 c0 963 -1 1750 -3
1750 -1 0 -790 -787 -1752 -1750z"/>
</g>
</svg>
